<svg width="27" height="19" viewBox="0 0 27 19" fill="none" xmlns="http://www.w3.org/2000/svg">
<path fill-rule="evenodd" clip-rule="evenodd" d="M10.1707 15.716V18.4572C9.87108 18.4865 9.56449 18.5032 9.2551 18.5032C4.1572 18.5032 0 14.346 0 9.25231C0 4.15859 4.1572 0 9.2551 0C9.56449 0 9.87108 0.0167236 10.1707 0.0459898V2.78726C9.87108 2.74406 9.56449 2.72176 9.2551 2.72176C5.65814 2.72176 2.72176 5.65814 2.72176 9.25092C2.72176 12.8437 5.65814 15.7801 9.2551 15.7801C9.56449 15.7801 9.87108 15.7564 10.1707 15.7146V15.716Z" fill="#2E2A66"/>
<path fill-rule="evenodd" clip-rule="evenodd" d="M18.7802 7.84168H24.1248V10.6694H18.7802C19.4282 13.589 22.0413 15.784 25.1547 15.784C25.464 15.784 25.7734 15.7603 26.0731 15.7185V18.4598C25.7706 18.489 25.464 18.5057 25.1547 18.5057C20.0568 18.5057 15.9023 14.3485 15.9023 9.25483C15.9023 4.16111 20.0554 0.00390625 25.1547 0.00390625C25.464 0.00390625 25.7706 0.0206298 26.0731 0.049896V2.79117C25.7706 2.74796 25.464 2.72567 25.1547 2.72567C22.0413 2.72567 19.4282 4.92063 18.7802 7.84308V7.84168Z" fill="#2E2A66"/>
</svg>
