<svg width="40" height="34" viewBox="0 0 40 34" fill="none" xmlns="http://www.w3.org/2000/svg">
<path d="M6 8.77884V4.23077C6 1.90385 7.8 0 10 0H30C32.2 0 34 1.90385 34 4.23077V8.8C31.68 9.66731 30 11.9942 30 14.7442V19.0385H10V14.7231C10 11.9942 8.32 9.64615 6 8.77884ZM36 10.5769C33.8 10.5769 32 12.4808 32 14.8077V21.1538H8V14.8077C8 12.4808 6.22 10.5769 4 10.5769C1.78 10.5769 0 12.4808 0 14.8077V25.3846C0 27.7115 1.8 29.6154 4 29.6154V33.8461H8V29.6154H32V33.8461H36V29.6154C38.2 29.6154 40 27.7115 40 25.3846V14.8077C40 12.4808 38.2 10.5769 36 10.5769Z" fill="#2074D5"/>
</svg>
