<svg width="40" height="40" viewBox="0 0 40 40" fill="none" xmlns="http://www.w3.org/2000/svg">
<g clip-path="url(#clip0_4159_20784)">
<path d="M24.1293 6.92328C22.8283 6.51416 21.4444 6.29335 20.0082 6.29335C18.682 6.29335 17.4003 6.48167 16.1875 6.8331L20.1322 0L24.1293 6.92328Z" fill="#FDC274"/>
<path d="M33.3764 23.0938C33.6045 22.1032 33.7245 21.0714 33.7245 20.0111C33.7245 18.2931 33.4089 16.6486 32.832 15.1328L39.9987 19.2705L33.3764 23.0938Z" fill="#FDC274"/>
<path d="M6.29335 20.0089C6.29335 21.3258 6.47901 22.5996 6.82581 23.8057L0 19.865L6.93124 15.8633C6.51681 17.1709 6.29335 18.564 6.29335 20.0089Z" fill="#FDC274"/>
<path d="M13.6746 32.1785L5.67578 34.3223L7.82219 26.3115C9.12118 28.8187 11.1714 30.8736 13.6746 32.1785Z" fill="#FDC274"/>
<path d="M34.3215 34.3225L26.3359 32.1827C28.8331 30.8817 30.8807 28.8341 32.1817 26.3369L34.3215 34.3225Z" fill="#FDC274"/>
<path d="M34.3232 5.67578L32.1795 13.6746C30.8745 11.1714 28.8196 9.12118 26.3125 7.82219L34.3232 5.67578Z" fill="#FDC274"/>
<path d="M13.6991 7.82551C11.1874 9.12913 9.12913 11.1874 7.82551 13.6991L5.67578 5.67578L13.6991 7.82551Z" fill="#FDC274"/>
<path d="M24.1184 33.0996L20.1346 39.9997L16.2031 33.1898C17.4119 33.5386 18.689 33.7256 20.0106 33.7256C21.4415 33.7256 22.8214 33.5067 24.1184 33.0996Z" fill="#FDC274"/>
<path d="M19.9924 31.9369C26.5897 31.9369 31.9379 26.5887 31.9379 19.9914C31.9379 13.3941 26.5897 8.0459 19.9924 8.0459C13.3951 8.0459 8.04688 13.3941 8.04688 19.9914C8.04688 26.5887 13.3951 31.9369 19.9924 31.9369Z" fill="#FDC274"/>
</g>
<defs>
<clipPath id="clip0_4159_20784">
<rect width="40" height="40" fill="white"/>
</clipPath>
</defs>
</svg>
